<?xml version="1.0" encoding="UTF-8"?>
<svg xmlns="http://www.w3.org/2000/svg" xmlns:xlink="http://www.w3.org/1999/xlink" id="logo" viewBox="0 0 216 83.17">
  <defs>
    <style>.cls-1{letter-spacing:-.01em;}.cls-2{letter-spacing:-.01em;}.cls-3{fill:#929497;}.cls-3,.cls-4,.cls-5,.cls-6{stroke-width:0px;}.cls-4{fill:url(#linear-gradient);}.cls-7{stroke:#969698;stroke-width:1.07px;}.cls-7,.cls-8{fill:#fff;}.cls-7,.cls-9{stroke-miterlimit:10;}.cls-10{clip-path:url(#clippath-2);}.cls-5,.cls-9{fill:none;}.cls-11{clip-path:url(#clippath-1);}.cls-12{fill:#969698;}.cls-12,.cls-8{font-family:NewHero-LightItalic, 'New Hero';font-size:8px;font-style:italic;font-weight:300;}.cls-6{fill:url(#linear-gradient-2);}.cls-13{clip-path:url(#clippath);}.cls-9{stroke:#221f1f;stroke-width:1.03px;}</style>
    <linearGradient id="linear-gradient" x1="-.23" y1="52.38" x2="216.02" y2="52.38" gradientUnits="userSpaceOnUse">
      <stop offset="0" stop-color="#cc2829"></stop>
      <stop offset="1" stop-color="#36368c"></stop>
    </linearGradient>
    <clipPath id="clippath">
      <rect class="cls-5" x="71.05" y="-4.38" width="200" height="100"></rect>
    </clipPath>
    <clipPath id="clippath-1">
      <rect class="cls-5" x="71.05" y="-4.38" width="200" height="100"></rect>
    </clipPath>
    <clipPath id="clippath-2">
      <path class="cls-5" d="m104.54,45.48h0s-.06-.07-.06-.07c-.88-.92-.87-2.34.03-3.24.44-.44,1.02-.68,1.65-.68h0c.62,0,1.2.24,1.64.68.91.91.91,2.38,0,3.29-.45.45-1.04.67-1.64.67s-1.17-.22-1.62-.65m-2.23-2.77c-.07-.1-.13-.21-.19-.31-.08-.14-.17-.28-.25-.42-.06-.11-.12-.22-.18-.33-.08-.14-.15-.29-.22-.43-.06-.11-.11-.23-.16-.34-.07-.15-.14-.29-.2-.44-.05-.12-.1-.24-.15-.36-.03-.08-.07-.17-.1-.26.19-.25.39-.48.61-.7,1.25-1.25,2.92-1.94,4.69-1.94s3.44.69,4.7,1.94c1.25,1.25,1.94,2.92,1.94,4.69s-.69,3.44-1.94,4.69h0c-.22.22-.46.43-.7.61-.08-.03-.17-.06-.25-.1-.12-.05-.25-.1-.37-.15-.14-.06-.28-.13-.42-.19-.12-.06-.24-.11-.36-.17-.14-.07-.28-.14-.42-.22-.12-.06-.23-.12-.34-.19-.14-.08-.27-.16-.41-.24-.11-.07-.22-.13-.33-.2-.06-.04-.13-.08-.19-.13.67-.16,1.3-.49,1.81-1,1.5-1.5,1.5-3.93,0-5.42-.72-.73-1.69-1.13-2.71-1.13h0c-1.03,0-1.99.4-2.72,1.13-.51.51-.85,1.14-1,1.81-.04-.07-.09-.13-.13-.2m-2.19-5.41s-.02-.1-.03-.15c-.07-.33-.12-.67-.16-1.01,0-.05-.01-.11-.02-.16-.04-.34-.07-.68-.09-1.02,0-.02,0-.05,0-.07,4.32-3.09,10.31-2.62,14.1,1.17,3.79,3.79,4.26,9.78,1.17,14.1-.02,0-.05,0-.07,0-.34-.02-.68-.05-1.02-.09-.05,0-.11-.01-.16-.02-.34-.04-.67-.1-1.01-.16-.05,0-.1-.02-.14-.03-.28-.06-.56-.13-.84-.2.03-.03.06-.05.09-.08,1.54-1.54,2.39-3.59,2.39-5.76s-.85-4.22-2.39-5.76c-1.54-1.54-3.59-2.39-5.76-2.39s-4.22.85-5.76,2.39c-.03.03-.06.06-.08.09-.07-.28-.14-.56-.2-.84m-.3-4.31c0-.13.02-.25.03-.38,0-.09.02-.18.03-.27.01-.12.02-.24.04-.36.01-.09.03-.19.04-.28.02-.12.03-.23.05-.35.02-.09.03-.19.05-.28.02-.11.04-.22.06-.34.02-.1.04-.19.06-.29.02-.11.05-.22.08-.33.02-.1.05-.19.07-.29.01-.05.03-.1.04-.15,5.72-2.35,12.2-1.06,16.59,3.33,4.4,4.4,5.68,10.87,3.33,16.6-.06.02-.12.03-.18.05-.08.02-.16.04-.23.06-.13.03-.26.06-.4.09-.07.02-.14.03-.22.05-.14.03-.28.06-.42.08-.06.01-.13.02-.19.03-.15.03-.3.05-.46.07-.06,0-.11.02-.17.02-.16.02-.32.04-.49.05-.05,0-.1.01-.14.01-.17.01-.34.03-.51.04,2.87-4.83,2.16-11.11-1.9-15.17-4.06-4.06-10.34-4.77-15.17-1.9,0-.04,0-.07,0-.11m1.22-5.23c.05-.12.1-.25.16-.37.04-.09.09-.18.13-.27.06-.12.11-.24.17-.36.05-.09.09-.18.14-.27.06-.12.12-.23.19-.35.05-.09.1-.17.15-.26.07-.12.13-.23.2-.35.05-.08.1-.17.16-.25.07-.11.15-.23.22-.34.05-.08.11-.16.17-.24.05-.07.1-.13.15-.2,6.26-1.06,12.65.96,17.15,5.46,4.49,4.49,6.52,10.88,5.45,17.15-.06.04-.12.09-.18.13-.09.06-.18.13-.27.19-.1.07-.21.14-.31.2-.09.06-.18.12-.27.17-.11.07-.22.13-.33.2-.09.05-.18.1-.27.15-.12.06-.23.13-.35.19-.09.05-.17.09-.26.14-.12.06-.25.12-.37.18-.08.04-.17.08-.25.12-.13.06-.27.12-.41.17-.02,0-.04.02-.06.02,1.95-5.98.42-12.51-4.1-17.04-4.52-4.52-11.05-6.05-17.03-4.1.01-.03.02-.06.03-.08m3.49-5.2c.26-.26.53-.51.8-.75.09-.08.18-.14.27-.22.19-.16.38-.32.58-.47.11-.09.23-.16.34-.24.18-.13.36-.26.54-.38.13-.08.26-.16.39-.24.15-.09.3-.18.45-.27,5.72.41,11.1,2.87,15.17,6.94,4.07,4.07,6.52,9.45,6.94,15.17-.09.15-.18.3-.27.45-.08.13-.16.26-.24.38-.12.19-.25.37-.38.55-.08.11-.16.23-.25.34-.15.2-.31.38-.47.57-.07.09-.15.18-.22.27-.24.27-.49.54-.75.8-.08.08-.17.16-.25.25.55-6.2-1.64-12.36-6.08-16.8-4.44-4.44-10.6-6.64-16.8-6.09.08-.09.16-.17.25-.25m19.61,3.29c-3.73-3.73-8.5-6.18-13.65-7.07,1.77-.64,3.61-.96,5.46-.96,4.2,0,8.37,1.62,11.48,4.73,4.47,4.47,5.88,11.14,3.78,16.95-.88-5.15-3.34-9.93-7.07-13.66m-16.59-7.4h0s-.19.11-.19.11c-1.41.79-2.72,1.78-3.88,2.94-.53.53-1.01,1.08-1.45,1.64h0s-.18.24-.18.24c-1.19,1.58-2.09,3.33-2.7,5.21h0s-.1.34-.1.34c-.51,1.71-.76,3.48-.74,5.25h0s.01.39.01.39c.05,1.72.36,3.42.9,5.05h0s.13.37.13.37c.11.3.23.61.35.9.03.07.06.14.09.21.1.23.2.45.3.67.04.09.09.18.14.27.1.19.2.39.3.58.06.11.12.21.19.31.1.17.2.34.3.51.07.11.15.22.22.33.1.16.21.32.32.47.08.12.17.23.26.35.1.14.21.28.32.42.1.12.21.24.31.37.1.12.21.25.31.37.12.13.25.26.37.39.1.1.19.21.29.31.03.04.06.07.08.09l.23.23h0c.09.09.19.17.28.26.11.1.22.21.34.31.13.11.26.22.39.33.11.09.23.19.34.28.02.02.05.04.07.06.11.09.23.17.34.25.11.09.23.17.34.25.11.08.22.15.33.23.04.02.07.05.11.07.11.08.23.15.34.23.16.1.32.19.48.29.11.06.22.13.33.2.17.1.35.19.53.28.11.05.21.11.32.16,0,0,.02.01.03.01.19.09.38.17.57.26.09.04.18.08.27.12.29.12.59.24.9.35,0,0,0,0,0,0l.35.13h0c1.63.54,3.32.84,5.04.89h.39s0,0,0,0c.06,0,.11,0,.17,0,1.72,0,3.43-.25,5.08-.74l.34-.1h0c.21-.08.42-.15.63-.22,1.65-.6,3.18-1.43,4.58-2.49,0,0,0,0,0,0,0,0,0,0,0,0l.23-.18h0c.56-.44,1.11-.92,1.64-1.45,1.15-1.15,2.14-2.46,2.94-3.88l.11-.19h0c3.71-6.85,2.48-15.43-3.05-20.96-3.4-3.4-7.95-5.17-12.54-5.17-2.88,0-5.77.7-8.4,2.13"></path>
    </clipPath>
    <linearGradient id="linear-gradient-2" x1="-284.77" y1="-7.28" x2="-284.67" y2="-7.28" gradientTransform="translate(-2459.46 -100760.81) rotate(-90) scale(354.01 -354.01)" gradientUnits="userSpaceOnUse">
      <stop offset="0" stop-color="#cb2729"></stop>
      <stop offset=".63" stop-color="#6d346a"></stop>
      <stop offset="1" stop-color="#353d91"></stop>
    </linearGradient>
  </defs>
  <polygon class="cls-4" points="216.02 72.08 -.23 72.08 -.23 32.68 216.02 32.68 216.02 52.42 216.02 72.08"></polygon>
  <text class="cls-12" transform="translate(164.78 41.01)">
    <tspan x="0" y="0">SCIENCESCIE</tspan>
    <tspan x="-3.94" y="9.6">NCESCIENCES</tspan>
    <tspan x="-1.79" y="19.2">CIENCESCIEN</tspan>
    <tspan x="6.75" y="28.8">CESCIENCE</tspan>
  </text>
  <text class="cls-8" transform="translate(164.78 41.01)">
    <tspan x="0" y="0">SCIENCESCIE</tspan>
    <tspan x="-3.94" y="9.6">NCESCIENCES</tspan>
    <tspan x="-1.79" y="19.2">CIENCESCIEN</tspan>
    <tspan x="6.75" y="28.8">CESCIENCE</tspan>
  </text>
  <text class="cls-8" transform="translate(1.4 41.05)">
    <tspan x="0" y="0">100</tspan>
    <tspan class="cls-2" x="14.18" y="0">1</tspan>
    <tspan x="17.65" y="0">10100</tspan>
    <tspan class="cls-1" x="40.7" y="0">1</tspan>
    <tspan x="44.18" y="0">10101</tspan>
    <tspan x="0" y="9.6">000101010</tspan>
    <tspan class="cls-2" x="42.53" y="9.6">11</tspan>
    <tspan x="49.47" y="9.6">1010</tspan>
    <tspan x="0" y="19.2">101010100101010</tspan>
    <tspan x="0" y="28.8">101010010101010</tspan>
  </text>
  <path id="Cloud_Path_" class="cls-7" d="m184.09,58.41c.04-.61-.05-1.19-.05-1.84,0-16.36-13.26-29.61-29.61-29.61-3.82,0-7.46.73-10.81,2.04-2.97-13.74-15.18-24.03-29.81-24.03-9.68,0-18.3,4.52-23.89,11.55-2.47-.82-5.11-1.27-7.85-1.27-13.81,0-25,11.19-25,25,0,.04,0,.08,0,.12-2.03-.65-4.19-1-6.44-1-11.56,0-20.92,9.22-20.92,20.59,0,7.41,2.49,11.27,3.09,12.24.75.84,1.84,3.59,6.07,3.75l128.45-.11c9.25,0,16.76-7.5,16.76-16.76h0c0-.22.02-.16.01-.66Z"></path>
  <g class="cls-13">
    <g class="cls-11">
      <path class="cls-3" d="m106.16,68.92c-6.43,0-12.87-2.45-17.76-7.35-9.79-9.79-9.79-25.73,0-35.53,5.09-5.09,12.14-7.76,19.33-7.31l1.61.1-1.41.78c-1.31.73-2.53,1.65-3.61,2.73-.56.56-1.07,1.15-1.52,1.74-1.18,1.56-2.05,3.29-2.61,5.16-.51,1.71-.74,3.48-.69,5.25.05,1.73.37,3.42.95,5.04.81,2.28,2.1,4.31,3.82,6.05l.09.1c1.73,1.72,3.77,3.01,6.06,3.82,1.62.58,3.31.9,5.03.95,1.78.06,3.55-.17,5.25-.68,1.87-.56,3.61-1.44,5.16-2.62.6-.45,1.18-.96,1.75-1.52,1.08-1.07,2-2.29,2.74-3.61l.78-1.4.1,1.6c.45,7.19-2.22,14.24-7.31,19.33-4.9,4.9-11.33,7.35-17.76,7.35m-.04-49.28c-6.38.01-12.52,2.55-17.05,7.08-4.57,4.57-7.08,10.64-7.08,17.09s2.51,12.53,7.08,17.09c4.57,4.57,10.64,7.08,17.09,7.08s12.53-2.51,17.09-7.08c4.53-4.53,7.07-10.68,7.08-17.05-.61.89-1.3,1.71-2.06,2.47-.59.59-1.21,1.13-1.85,1.61-1.64,1.24-3.48,2.17-5.46,2.77-1.8.54-3.66.78-5.55.72-1.82-.05-3.61-.39-5.32-1-2.42-.87-4.57-2.23-6.4-4.05l-.05-.05s-.05-.05-.07-.07c-1.81-1.83-3.17-3.98-4.03-6.38-.61-1.71-.95-3.5-1-5.33-.06-1.88.19-3.74.73-5.55.59-1.97,1.52-3.81,2.76-5.46.47-.63,1.01-1.25,1.6-1.85.76-.76,1.59-1.45,2.47-2.05"></path>
      <path class="cls-9" d="m103.99,45.99h0s-.03-.03-.05-.05c.02.02.03.03.05.05Z"></path>
      <path class="cls-3" d="m106.18,51.96c-2.11,0-4.2-.81-5.78-2.39-2.74-2.74-3.17-7.06-1.02-10.28l.84-1.25.51,1.42c.8,2.24,2.06,4.24,3.76,5.94l.09.1c1.7,1.69,3.7,2.95,5.95,3.76l1.42.51-1.25.83c-1.37.91-2.94,1.36-4.5,1.36m-6.25-10.44c-.87,2.38-.32,5.13,1.54,6.99,1.86,1.86,4.61,2.41,6.99,1.54-1.84-.86-3.5-2.02-4.96-3.47l-.05-.05s-.05-.05-.07-.08c-1.44-1.46-2.6-3.11-3.45-4.93"></path>
      <path class="cls-3" d="m106.16,56.2c-3.31,0-6.42-1.29-8.76-3.63-4.83-4.83-4.83-12.7,0-17.53.38-.38.79-.74,1.21-1.06l1.06-.81.04,1.33c.05,1.7.37,3.38.94,4.97.8,2.25,2.07,4.26,3.77,5.97l.09.1c1.71,1.7,3.72,2.97,5.98,3.77,1.6.57,3.27.88,4.97.94l1.32.04-.8,1.06c-.31.41-.67.82-1.06,1.22-2.34,2.34-5.45,3.63-8.76,3.63m-7.72-20.26s-.05.05-.07.07c-4.3,4.3-4.3,11.29,0,15.59,2.08,2.08,4.85,3.23,7.79,3.23s5.71-1.15,7.79-3.23c.02-.02.05-.05.07-.07-1.36-.15-2.7-.46-4-.92-2.45-.88-4.63-2.25-6.48-4.09l-.05-.05s-.05-.05-.07-.07c-1.83-1.85-3.2-4.02-4.07-6.46-.46-1.29-.77-2.63-.92-4"></path>
      <path class="cls-3" d="m106.16,60.45c-4.44,0-8.62-1.73-11.76-4.87-6.49-6.49-6.49-17.04,0-23.53,1.48-1.48,3.19-2.65,5.09-3.48l1.21-.53-.38,1.27c-.51,1.7-.74,3.45-.68,5.21.05,1.71.37,3.39.94,5,.81,2.26,2.08,4.28,3.79,6l.09.1c1.71,1.7,3.73,2.98,6,3.79,1.6.57,3.28.89,4.99.94,1.77.06,3.52-.17,5.2-.68l1.27-.38-.53,1.22c-.83,1.9-2,3.61-3.48,5.08-3.14,3.14-7.32,4.87-11.76,4.87m-7.35-30.18c-1.3.7-2.48,1.59-3.54,2.65-6.01,6.01-6.01,15.78,0,21.79,2.91,2.91,6.78,4.51,10.89,4.51s7.98-1.6,10.89-4.51c1.06-1.06,1.94-2.24,2.65-3.53-1.4.3-2.84.43-4.28.39-1.84-.06-3.64-.4-5.37-1.01-2.44-.87-4.61-2.25-6.46-4.08l-.05-.05s-.05-.05-.07-.07c-1.83-1.84-3.19-4.01-4.06-6.43-.62-1.73-.96-3.53-1.01-5.37-.04-1.44.09-2.88.39-4.28"></path>
      <path class="cls-3" d="m106.16,64.68c-5.35,0-10.69-2.04-14.76-6.11-8.14-8.14-8.14-21.38,0-29.52,2.99-3,6.77-4.99,10.93-5.76l1.38-.26-.84,1.12c-1.17,1.55-2.04,3.28-2.6,5.14-.51,1.7-.74,3.46-.68,5.23.05,1.72.37,3.41.94,5.02.81,2.27,2.09,4.3,3.81,6.02l.09.1c1.72,1.71,3.75,2.99,6.03,3.81,1.61.57,3.3.89,5.01.94,1.77.05,3.53-.17,5.23-.68,1.86-.56,3.59-1.44,5.14-2.6l1.12-.85-.26,1.38c-.77,4.15-2.76,7.93-5.76,10.92-4.07,4.07-9.42,6.11-14.76,6.11m-4.97-40.03c-3.41.88-6.51,2.65-9.02,5.17-7.72,7.72-7.72,20.27,0,27.99,7.72,7.72,20.27,7.72,27.99,0,2.51-2.51,4.28-5.61,5.16-9.02-1.34.85-2.79,1.51-4.32,1.97-1.8.54-3.68.79-5.57.73-1.83-.05-3.63-.39-5.35-1.01-2.43-.87-4.59-2.24-6.43-4.06l-.05-.05s-.05-.05-.07-.07c-1.82-1.84-3.18-3.99-4.04-6.41-.61-1.72-.95-3.52-1.01-5.35-.06-1.88.19-3.76.73-5.57.46-1.53,1.12-2.98,1.97-4.32"></path>
    </g>
    <g class="cls-10">
      <rect class="cls-6" x="91.16" y="8.42" width="51.18" height="51.18" transform="translate(10.14 92.52) rotate(-45)"></rect>
    </g>
  </g>
</svg>
